<svg width="56" height="56" viewBox="0 0 56 56" fill="none" xmlns="http://www.w3.org/2000/svg">
<path d="M41.5618 28C45.9826 27.1685 50.3325 25.1136 52.9866 22.4132L55.9999 19.3475L51.6674 18.5516C47.8512 17.8506 43.0621 18.62 38.9716 20.4187C42.0343 17.2745 44.2836 13.1804 44.7617 9.51207L45.3049 5.34749L41.308 7.12558C37.7875 8.69176 34.3885 11.9913 32.1905 15.7332C32.7251 11.4774 32.0147 6.90782 30.1343 3.6727L27.9999 2.33764e-05L25.8652 3.6727C23.985 6.90782 23.2744 11.4774 23.809 15.7332C21.6112 11.9913 18.2122 8.69162 14.6917 7.12558L10.6948 5.34749L11.2378 9.51207C11.7161 13.1804 13.9654 17.2745 17.028 20.4187C12.9375 18.62 8.14827 17.8507 4.33218 18.5516L-0.000129971 19.3475L3.01296 22.4132C5.66702 25.1136 10.0169 27.1684 14.4379 28C10.017 28.8316 5.66702 30.8863 3.01296 33.5869L-0.000129971 36.6526L4.33218 37.4483C8.14827 38.1495 12.9374 37.38 17.028 35.5813C13.9654 38.7257 11.7161 42.8196 11.2378 46.4879L10.6948 50.6523L14.6915 48.8746C18.2121 47.3083 21.6111 44.0087 23.8089 40.2668C23.2743 44.5225 23.9848 49.0921 25.8651 52.3273L27.9996 56L30.134 52.3273C32.0144 49.0921 32.7248 44.5225 32.1905 40.2668C34.3882 44.0087 37.7872 47.3085 41.3077 48.8746L45.3043 50.6523L44.7614 46.4879C44.283 42.8196 42.0337 38.7257 38.9713 35.5813C43.0618 37.38 47.8509 38.1492 51.6671 37.4483L55.9993 36.6526L52.9863 33.5869C50.3325 30.8865 45.9826 28.8316 41.5618 28Z" fill="url(#paint0_linear_926_1861)"/>
<defs>
<linearGradient id="paint0_linear_926_1861" x1="78.5" y1="15.5" x2="-12.5" y2="31.5" gradientUnits="userSpaceOnUse">
<stop offset="0.065" stop-color="#963D01"/>
<stop offset="0.635" stop-color="#FCAE18"/>
<stop offset="1" stop-color="white"/>
</linearGradient>
</defs>
</svg>
