<svg width="56" height="56" viewBox="0 0 56 56" fill="none" xmlns="http://www.w3.org/2000/svg">
<path d="M27.9982 56V51.6429C13.7363 51.6429 0 42.261 0 28H4.35386C4.35386 13.739 13.7363 0 27.9982 0V4.35714C42.2601 4.35714 56 13.739 56 28H51.6463C51.6463 42.261 42.2601 56 27.9982 56Z" fill="url(#paint0_linear_926_1862)"/>
<path d="M27.9982 56V51.6429C13.7363 51.6429 0 42.261 0 28H4.35386C4.35386 13.739 13.7363 0 27.9982 0V4.35714C42.2601 4.35714 56 13.739 56 28H51.6463C51.6463 42.261 42.2601 56 27.9982 56Z" fill="url(#paint1_linear_926_1862)"/>
<defs>
<linearGradient id="paint0_linear_926_1862" x1="38" y1="11.5" x2="1.55398e-06" y2="45" gradientUnits="userSpaceOnUse">
<stop offset="0.0509862" stop-color="#FFB6E1"/>
<stop offset="1" stop-color="#FBE3EA"/>
</linearGradient>
<linearGradient id="paint1_linear_926_1862" x1="44.1" y1="8.96" x2="12.32" y2="41.3" gradientUnits="userSpaceOnUse">
<stop offset="0.0509862" stop-color="#FFB6E1"/>
<stop offset="1" stop-color="#FBE3EA"/>
</linearGradient>
</defs>
</svg>
